<?xml version="1.0" standalone="no"?>
<!DOCTYPE svg PUBLIC "-//W3C//DTD SVG 20010904//EN"
 "http://www.w3.org/TR/2001/REC-SVG-20010904/DTD/svg10.dtd">
<svg version="1.0" xmlns="http://www.w3.org/2000/svg"
 width="1024.000000pt" height="1024.000000pt" viewBox="0 0 1024.000000 1024.000000"
 preserveAspectRatio="xMidYMid meet">
<metadata>
Created by potrace 1.14, written by Peter Selinger 2001-2017
</metadata>
<g transform="translate(0.000000,1024.000000) scale(0.100000,-0.100000)"
fill="#000000" stroke="none">
<path d="M4805 10234 c-579 -45 -1070 -155 -1570 -351 -174 -68 -561 -258
-717 -351 -716 -428 -1295 -992 -1731 -1684 -456 -724 -714 -1516 -778 -2393
-14 -200 -6 -666 15 -865 103 -948 459 -1839 1031 -2585 388 -505 883 -949
1420 -1272 1669 -1005 3756 -975 5407 78 307 196 562 402 849 689 406 404 700
807 954 1305 534 1050 689 2270 434 3421 -211 960 -684 1820 -1384 2519 -830
830 -1899 1340 -3080 1470 -142 16 -724 29 -850 19z m735 -1299 c1169 -132
2207 -783 2833 -1778 l58 -92 -1180 -3 c-1113 -2 -1180 -3 -1185 -20 -9 -29
-206 -959 -206 -971 0 -8 138 -11 485 -11 l485 0 -5 -22 c-3 -13 -165 -792
-361 -1733 -195 -940 -357 -1718 -360 -1727 -5 -17 28 -18 599 -18 l604 0 30
142 c16 79 180 866 364 1751 l334 1607 405 -2 404 -3 17 -75 c65 -280 92 -532
92 -855 1 -443 -55 -807 -186 -1205 -124 -376 -335 -781 -573 -1098 -381 -508
-900 -929 -1464 -1187 -389 -178 -746 -276 -1200 -331 -200 -24 -618 -24 -825
0 -485 56 -894 179 -1325 397 -375 190 -690 421 -1000 733 l-125 126 550 0
c685 0 828 13 1135 101 486 140 825 444 958 860 53 165 66 261 66 489 0 238
-12 300 -90 456 -84 171 -206 290 -386 377 -59 29 -106 56 -105 60 1 5 47 26
102 46 470 178 715 454 791 891 23 135 15 394 -15 500 -32 109 -104 248 -169
326 -149 177 -397 301 -707 354 -180 31 -447 40 -1232 40 l-713 0 -5 -22 c-3
-13 -174 -819 -379 -1793 -206 -973 -376 -1779 -378 -1790 -9 -38 -133 247
-209 480 -125 380 -182 754 -183 1180 0 277 9 398 50 645 104 631 382 1250
788 1760 192 240 516 546 781 735 562 401 1241 642 1957 695 154 12 514 4 678
-15z m-1692 -2830 c64 -22 135 -82 164 -139 17 -31 23 -64 26 -136 7 -164 -34
-287 -126 -372 -102 -96 -180 -118 -439 -125 -106 -3 -193 -3 -193 0 0 3 41
182 90 398 50 215 90 394 90 396 0 3 75 3 168 1 127 -4 180 -9 220 -23z m-326
-1694 c125 -40 194 -120 223 -257 50 -234 -42 -445 -245 -564 -117 -69 -178
-82 -402 -88 -170 -4 -198 -2 -198 10 0 16 187 893 195 917 4 11 38 13 183 9
144 -5 189 -9 244 -27z"/>
</g>
</svg>
